<svg width="171" height="27" viewBox="0 0 171 27" fill="none" xmlns="http://www.w3.org/2000/svg">
<path fill-rule="evenodd" clip-rule="evenodd" d="M6.12494 14.7958C5.4026 14.29 3.66565 13.9152 3.59414 13.8996C2.65313 13.6815 1.99711 13.4354 1.58671 13.1457C1.16905 12.858 0.95349 12.4997 0.944163 12.0833C0.94209 11.6202 1.17216 11.2058 1.63024 10.8569C2.13184 10.4872 2.74951 10.2992 3.49051 10.294C4.17451 10.2972 5.03054 10.6388 6.02442 11.3014C6.1026 11.3671 6.20218 11.4019 6.30423 11.399C6.38237 11.4008 6.4595 11.3811 6.52715 11.3419C6.5948 11.3027 6.65035 11.2455 6.68769 11.1767C6.84418 10.9202 6.79858 10.6866 6.56125 10.5225C5.91711 10.0291 5.1805 9.67069 4.39525 9.46847C3.84909 9.33554 3.49673 9.34489 3.46253 9.34697C2.53602 9.35216 1.7318 9.6045 1.07164 10.0978C0.356544 10.6295 -0.00411012 11.2993 3.53325e-05 12.0875C-0.00307376 12.8539 0.355508 13.48 1.06645 13.9494C1.85824 14.4718 3.40449 14.8062 3.41693 14.8093C4.51236 15.0813 5.11656 15.2672 5.57878 15.586C6.05551 15.9183 6.29698 16.3265 6.30009 16.801C6.29594 17.3172 6.03893 17.7689 5.53422 18.1438C5.00464 18.5488 4.33411 18.7565 3.54129 18.7606H3.48533C2.82205 18.7606 2.14945 18.581 1.48929 18.2258C1.24124 18.0895 1.00206 17.9376 0.773163 17.771C0.724709 17.7289 0.667758 17.6979 0.606213 17.68C0.544667 17.662 0.479982 17.6577 0.416591 17.6671C0.3532 17.6766 0.292602 17.6997 0.238948 17.7348C0.185295 17.77 0.139856 17.8163 0.105744 17.8707C-0.0196556 18.0524 -0.0279465 18.2341 0.0808717 18.393L0.0653262 18.4148L0.164817 18.4875C0.17829 18.501 0.192799 18.5145 0.21249 18.5301C0.287108 18.5841 0.361726 18.6339 0.437381 18.6827L0.590763 18.7835C0.667453 18.8333 0.745181 18.879 0.820835 18.9237C0.897526 18.9693 0.973181 19.014 1.04987 19.0555L1.2188 19.1448V19.1428C1.98364 19.528 2.75884 19.7264 3.54647 19.7305C4.52584 19.7253 5.38705 19.4533 6.10629 18.9216C6.86491 18.3463 7.25147 17.6318 7.25458 16.7979C7.2494 15.9817 6.87942 15.3264 6.12391 14.7958H6.12494ZM59.9827 13.9837L64.039 10.1902C64.0531 10.1774 64.065 10.1623 64.0742 10.1455C64.0825 10.1353 64.0901 10.1245 64.0971 10.1134C64.1618 10.0266 64.1925 9.91899 64.1833 9.81103C64.1741 9.70307 64.1257 9.60224 64.0473 9.52766L64.0069 9.4882L63.9831 9.47262C63.9027 9.40513 63.8035 9.36421 63.699 9.35547C63.5946 9.34674 63.49 9.37061 63.3996 9.42381C63.3807 9.43334 63.3627 9.44445 63.3457 9.45704L57.028 15.3763L57.0177 9.81427C57.0159 9.7509 57.0017 9.68849 56.9758 9.63063C56.95 9.57277 56.913 9.52059 56.867 9.47708C56.8209 9.43357 56.7668 9.39959 56.7077 9.37708C56.6485 9.35458 56.5855 9.34399 56.5223 9.34593H56.457C56.3298 9.34257 56.2064 9.38987 56.114 9.47746C56.0215 9.56505 55.9675 9.68579 55.9637 9.81324L55.974 19.2622C55.974 19.5208 56.1948 19.7295 56.4673 19.7295H56.5326C56.5975 19.7303 56.6618 19.7182 56.7219 19.6938C56.782 19.6694 56.8366 19.6332 56.8826 19.5873C56.9285 19.5415 56.9649 19.4869 56.9895 19.4268C57.0141 19.3667 57.0265 19.3022 57.0259 19.2373L57.0218 16.7657L59.2375 14.694L62.9363 19.0888L63.3312 19.5561C63.3788 19.612 63.4381 19.6566 63.5049 19.6867C63.5718 19.7169 63.6444 19.7319 63.7177 19.7305C63.8286 19.7305 63.9364 19.6941 64.0245 19.6267L64.0701 19.5935C64.1202 19.5567 64.1621 19.5099 64.1933 19.4561C64.2245 19.4023 64.2443 19.3426 64.2514 19.2808C64.2585 19.219 64.2528 19.1564 64.2346 19.0969C64.2164 19.0374 64.1862 18.9823 64.1458 18.9351L59.9817 13.9837H59.9827ZM19.1925 13.8092L19.1914 13.8103C18.808 14.2132 18.3323 14.4188 17.7809 14.4219L15.4781 14.425L15.4761 10.3356L17.7768 10.3325C18.0412 10.3303 18.3033 10.3818 18.5473 10.4839C18.7913 10.586 19.0122 10.7366 19.1966 10.9265C19.5842 11.3232 19.779 11.8112 19.7759 12.3762C19.779 12.9328 19.5832 13.4146 19.1925 13.8092ZM19.8651 10.2255C19.5963 9.94482 19.2732 9.72204 18.9156 9.5708C18.5579 9.41956 18.1733 9.34304 17.7851 9.34593L14.9838 9.35216C14.676 9.35424 14.5081 9.52558 14.5102 9.83608V19.2622C14.5102 19.5166 14.7216 19.7305 14.9724 19.7305H15.0325C15.2812 19.7305 15.4843 19.5208 15.4843 19.2632L15.4833 15.4105L17.8079 15.3856C18.6059 15.3804 19.2992 15.0803 19.8661 14.4925C20.1457 14.2158 20.3663 13.8851 20.5145 13.5204C20.6627 13.1557 20.7355 12.7647 20.7283 12.371C20.736 11.9735 20.6635 11.5786 20.5151 11.21C20.3668 10.8413 20.1457 10.5065 19.8651 10.2255ZM42.4671 14.425L42.464 10.3356L44.8684 10.3325C45.4213 10.3264 45.9542 10.5399 46.3504 10.9265C46.7556 11.3232 46.9587 11.8112 46.9556 12.3762C46.9587 12.9328 46.7535 13.4146 46.3441 13.8103C46.1528 14.0065 45.9237 14.1619 45.6708 14.267C45.4179 14.3722 45.1463 14.4249 44.8725 14.4219L42.4671 14.425ZM45.6767 15.287C46.1887 15.1561 46.6509 14.8882 47.0499 14.4925C47.652 13.9037 47.9547 13.1903 47.9505 12.371C47.9569 11.9702 47.8801 11.5726 47.7249 11.2032C47.5697 10.8338 47.3395 10.5009 47.0489 10.2255C46.7625 9.9424 46.423 9.71891 46.05 9.56794C45.677 9.41698 45.2779 9.34152 44.8756 9.34593L41.95 9.35216C41.6287 9.35424 41.4535 9.52662 41.4556 9.83608L41.466 19.2622C41.466 19.5208 41.6784 19.7305 41.9386 19.7305H42.0007C42.125 19.7308 42.2443 19.6818 42.3327 19.5943C42.421 19.5067 42.4712 19.3877 42.4723 19.2632V15.4105L44.4756 15.3898L47.8251 19.5478C47.9042 19.6444 48.0179 19.7062 48.1419 19.7198C48.2659 19.7334 48.3903 19.6977 48.4884 19.6205L48.5329 19.5852C48.5814 19.5473 48.6219 19.5001 48.652 19.4464C48.682 19.3926 48.7011 19.3334 48.7081 19.2722C48.715 19.211 48.7097 19.149 48.6924 19.0899C48.6752 19.0307 48.6463 18.9756 48.6076 18.9278L45.6767 15.288V15.287ZM36.252 19.0888C36.2474 19.0701 36.2415 19.0517 36.2344 19.0337L32.6165 9.65747C32.5678 9.5152 32.4424 9.34697 32.1242 9.34697H32.118C32.0141 9.34293 31.9115 9.37055 31.8236 9.42617C31.7357 9.48178 31.6667 9.56279 31.6257 9.6585L28.0171 19.042C27.9939 19.1042 27.9831 19.1704 27.9854 19.2367C27.9878 19.3031 28.0031 19.3683 28.0307 19.4287C28.0582 19.4891 28.0974 19.5434 28.1459 19.5886C28.1944 19.6339 28.2514 19.669 28.3135 19.6921C28.4391 19.7381 28.5777 19.7334 28.7 19.6792C28.8223 19.625 28.9189 19.5254 28.9695 19.4014L32.1387 11.2017L35.2996 19.4107C35.3233 19.4719 35.3589 19.5278 35.4042 19.5752C35.4496 19.6226 35.5038 19.6606 35.5639 19.6869C35.6859 19.741 35.8241 19.7454 35.9494 19.6994C36.0613 19.6577 36.1545 19.577 36.2119 19.4721C36.2694 19.3673 36.2873 19.2452 36.2624 19.1282L36.252 19.0898V19.0888ZM101.08 18.1375C100.696 18.5342 100.223 18.7367 99.6723 18.7398L97.3353 18.743V14.667L99.664 14.6649H99.6765C100.213 14.6649 100.682 14.8653 101.065 15.261C101.457 15.6639 101.652 16.1333 101.661 16.6941C101.651 17.2652 101.455 17.7512 101.08 18.1375ZM97.3353 10.3408L99.0432 10.3314C99.4972 10.3356 99.8848 10.5028 100.198 10.8278C100.519 11.1549 100.676 11.5433 100.679 12.0117C100.673 12.4686 100.517 12.8487 100.2 13.1727C100.052 13.3281 99.8731 13.4515 99.6754 13.5352C99.4778 13.619 99.2651 13.6614 99.0505 13.6597L97.3312 13.6587L97.3353 10.3408ZM100.805 13.9266C101.069 13.6833 101.277 13.3867 101.418 13.0563C101.558 12.726 101.626 12.3695 101.619 12.0106C101.625 11.6617 101.562 11.3149 101.433 10.9909C101.304 10.6668 101.111 10.3719 100.866 10.1237C100.631 9.87556 100.348 9.67845 100.034 9.54464C99.7197 9.41084 99.3815 9.3432 99.0401 9.34593H96.8503C96.7021 9.34801 96.586 9.38954 96.5062 9.47054C96.4233 9.55362 96.3819 9.67616 96.3829 9.83089L96.386 19.2404C96.387 19.3754 96.4326 19.4927 96.5207 19.5872C96.5598 19.6323 96.608 19.6684 96.6622 19.6931C96.7164 19.7178 96.7752 19.7306 96.8347 19.7305H96.8379L99.6775 19.7264C100.065 19.7291 100.448 19.6513 100.803 19.4979C101.159 19.3446 101.479 19.119 101.743 18.8354C102.022 18.5562 102.242 18.2235 102.389 17.8571C102.537 17.4908 102.609 17.0984 102.601 16.7034C102.609 16.082 102.422 15.4737 102.067 14.964C101.751 14.5072 101.314 14.1479 100.805 13.9266ZM140.767 17.5134C139.969 18.3338 138.999 18.7523 137.86 18.7575C136.714 18.7565 135.719 18.34 134.905 17.5207C134.508 17.133 134.195 16.6685 133.984 16.1555C133.773 15.6426 133.669 15.0919 133.677 14.5372C133.677 13.371 134.084 12.3668 134.883 11.5537C135.681 10.7479 136.676 10.3356 137.837 10.3304V10.2234L137.86 10.3304C138.983 10.3314 139.958 10.7479 140.758 11.5672C141.566 12.3824 141.979 13.3814 141.986 14.5382C141.989 15.0903 141.883 15.6375 141.674 16.1482C141.465 16.6589 141.157 17.1229 140.767 17.5134ZM137.832 9.34593C136.392 9.3532 135.158 9.86308 134.164 10.861C133.171 11.858 132.663 13.0958 132.656 14.5424C132.663 15.9723 133.172 17.205 134.168 18.2071C135.173 19.2186 136.417 19.7305 137.864 19.7305H137.888C139.314 19.7233 140.537 19.2061 141.523 18.1936C142.507 17.1967 143.011 15.9661 143.019 14.5341C143.011 13.1041 142.506 11.8715 141.518 10.8704C140.522 9.85893 139.289 9.34593 137.832 9.34593Z" fill="white"/>
<mask id="mask0" mask-type="alpha" maskUnits="userSpaceOnUse" x="162" y="9" width="9" height="11">
<path d="M162.984 9.58057H170.929V19.5986H162.984V9.58057Z" fill="white"/>
</mask>
<g mask="url(#mask0)">
<path fill-rule="evenodd" clip-rule="evenodd" d="M168.617 17.4448C167.761 18.2351 166.711 18.6391 165.498 18.6463L164.011 18.6432V10.5308L165.476 10.5328C166.69 10.5411 167.743 10.9451 168.608 11.7343C169.468 12.5298 169.905 13.4956 169.903 14.6046C169.902 15.7065 169.47 16.6618 168.617 17.4448ZM169.33 11.0552C168.269 10.077 166.971 9.58057 165.473 9.58057H163.489C163.328 9.58057 163.203 9.6221 163.117 9.69895C163.028 9.78099 162.983 9.89626 162.984 10.0479L162.988 19.124C162.99 19.4044 163.155 19.5716 163.454 19.5976H165.503C166.994 19.5903 168.282 19.096 169.332 18.1292C170.391 17.153 170.928 15.9661 170.929 14.6005C170.929 13.2214 170.39 12.0282 169.329 11.0552" fill="white"/>
</g>
<path fill-rule="evenodd" clip-rule="evenodd" d="M115.612 9.35229L110.343 9.34606C110.277 9.34218 110.211 9.35168 110.149 9.37398C110.086 9.39629 110.029 9.43094 109.981 9.47587C109.937 9.52532 109.904 9.58302 109.882 9.6456C109.861 9.70817 109.852 9.77438 109.857 9.84037L109.861 19.2405C109.862 19.5292 110.02 19.7037 110.317 19.7307L115.58 19.7265C115.704 19.7257 115.822 19.676 115.909 19.5882C115.995 19.5004 116.044 19.3818 116.044 19.2582V19.2083C116.044 18.9498 115.836 18.741 115.565 18.741L110.846 18.7421L110.848 15.0399L114.985 15.041C115.108 15.0404 115.226 14.991 115.313 14.9034C115.4 14.8158 115.449 14.6973 115.449 14.5737V14.5228C115.449 14.3992 115.4 14.2807 115.313 14.1931C115.226 14.1055 115.108 14.056 114.985 14.0555L110.844 14.0544L110.846 10.3409L115.612 10.3378C115.735 10.337 115.852 10.2874 115.939 10.1998C116.026 10.1123 116.075 9.99388 116.075 9.87049V9.8196C116.075 9.6962 116.026 9.57781 115.939 9.49026C115.852 9.40271 115.735 9.35311 115.612 9.35229ZM157.031 9.36268H156.966C156.902 9.36102 156.839 9.3719 156.78 9.3947C156.721 9.4175 156.666 9.45177 156.62 9.49555C156.574 9.53934 156.537 9.59178 156.512 9.64987C156.486 9.70797 156.472 9.77058 156.47 9.83414L156.466 17.7088L150.224 9.57245C150.135 9.43225 149.955 9.34606 149.752 9.34606H149.748C149.635 9.34809 149.525 9.3823 149.43 9.44472C149.236 9.59218 149.237 9.75833 149.238 9.94941L149.242 19.2322H149.356L149.244 19.2603C149.244 19.5199 149.466 19.7307 149.739 19.7307H149.792C149.92 19.734 150.044 19.6864 150.137 19.5982C150.23 19.5101 150.284 19.3885 150.288 19.2603V18.6621C150.288 18.6517 150.286 18.6413 150.285 18.6351L150.277 11.3326L156.51 19.4783C156.569 19.5521 156.732 19.7244 156.982 19.7244H156.985C157.327 19.7224 157.521 19.551 157.529 19.2374L157.525 9.83414C157.522 9.70597 157.468 9.58433 157.375 9.49593C157.283 9.40753 157.159 9.35961 157.031 9.36268ZM129.352 9.48106L129.3 9.44368C129.196 9.36913 129.068 9.33766 128.941 9.35586C128.815 9.37405 128.701 9.4405 128.622 9.54129L128.712 9.60464L128.605 9.5631L125.405 13.7689L122.202 9.56829L122.176 9.5361C122.17 9.52675 122.162 9.51948 122.147 9.50287C122.065 9.41587 121.954 9.36137 121.836 9.34936C121.717 9.33734 121.598 9.36862 121.5 9.43745L121.452 9.47172C121.402 9.50728 121.359 9.55277 121.326 9.60543C121.293 9.6581 121.271 9.71685 121.262 9.77816C121.252 9.83947 121.255 9.90207 121.271 9.9622C121.286 10.0223 121.313 10.0787 121.351 10.128L124.895 14.7471V19.2613C124.895 19.5209 125.113 19.7307 125.379 19.7307H125.431C125.556 19.7318 125.677 19.6838 125.768 19.5969C125.858 19.5099 125.911 19.391 125.915 19.2654L125.916 19.2623V14.7471L129.452 10.1374C129.49 10.0881 129.517 10.0318 129.533 9.97171C129.548 9.91162 129.551 9.84904 129.542 9.78774C129.532 9.72643 129.511 9.66766 129.478 9.61496C129.445 9.56225 129.402 9.51671 129.352 9.48106Z" fill="white"/>
<mask id="mask1" mask-type="alpha" maskUnits="userSpaceOnUse" x="75" y="0" width="10" height="27">
<path d="M75.6562 0H84.9835V27H75.6562V0Z" fill="white"/>
</mask>
<g mask="url(#mask1)">
<path fill-rule="evenodd" clip-rule="evenodd" d="M82.9139 13.31C81.4031 13.2551 79.8916 13.2219 78.3798 13.2103C78.2038 13.2111 78.0323 13.1538 77.8919 13.0475C77.7515 12.9411 77.6498 12.7914 77.6025 12.6215L77.5922 12.5799C77.5591 12.4507 77.5609 12.3151 77.5973 12.1868C77.6337 12.0585 77.7035 11.9423 77.7995 11.8499C78.872 10.8003 79.9285 9.73434 80.9687 8.65246C81.8216 7.75835 82.3056 7.19862 82.2537 7.14877C82.2019 7.09996 81.6423 7.54754 80.7458 8.33988C80.0017 8.99723 79.0244 9.89031 77.9114 10.935C77.8263 11.014 77.7257 11.0742 77.616 11.1119C77.5063 11.1497 77.39 11.164 77.2745 11.154C77.1589 11.144 77.0468 11.11 76.9451 11.054C76.8435 10.9981 76.7547 10.9214 76.6843 10.8291C76.6536 10.7873 76.6225 10.7457 76.5911 10.7045C76.5651 10.6692 76.4926 9.87369 76.3983 8.73139C76.2428 4.84442 75.9475 1.59612 75.7972 1.242C75.7309 0.483923 75.6811 0 75.6614 0C75.6614 0 75.6594 0 75.6594 0.00207692L75.6562 0.00415385V26.9958L75.6594 26.9979L75.6614 27C75.6811 27 75.7309 26.5161 75.7962 25.758C75.9475 25.4049 76.2418 22.1286 76.3972 18.2624C76.4905 17.1222 76.5631 16.3257 76.589 16.2924L76.6926 16.1481C76.7627 16.0551 76.8515 15.9779 76.9532 15.9214C77.055 15.865 77.1674 15.8306 77.2832 15.8204C77.3991 15.8102 77.5158 15.8245 77.6257 15.8624C77.7357 15.9002 77.8366 15.9607 77.9217 16.0401C79.0317 17.0806 80.0048 17.9716 80.7479 18.6258C81.6433 19.4172 82.2009 19.8637 82.2517 19.8149C82.3035 19.764 81.8216 19.2063 80.9697 18.3133C79.9309 17.2328 78.8757 16.1683 77.8046 15.12C77.7087 15.0276 77.639 14.9113 77.6026 14.783C77.5662 14.6548 77.5644 14.5191 77.5974 14.39L77.6005 14.3775C77.6479 14.2077 77.7496 14.0581 77.89 13.9517C78.0304 13.8454 78.2017 13.7881 78.3777 13.7887C80.1821 13.771 81.7563 13.7357 82.9129 13.689C84.2094 13.6381 84.9835 13.5727 84.9835 13.5C84.9835 13.4273 84.2083 13.3619 82.9139 13.31Z" fill="white"/>
</g>
</svg>
